<svg width="15" height="21" viewBox="0 0 15 21" fill="none" xmlns="http://www.w3.org/2000/svg">
<path d="M7.64648 0.428589H11.436C13.3295 0.428589 14.8645 1.96361 14.8645 3.85716C14.8645 5.75071 13.3295 7.28573 11.436 7.28573H7.64648V0.428589Z" fill="#FB774E"/>
<path d="M7.64648 0.428589H3.85701C1.96346 0.428589 0.428439 1.96361 0.428439 3.85716C0.428439 5.75071 1.96346 7.28573 3.85701 7.28573H7.64648V0.428589Z" fill="#F93737"/>
<path d="M7.64648 7.28573H3.85701C1.96346 7.28573 0.428439 8.82075 0.428439 10.7143C0.428439 12.6078 1.96346 14.1429 3.85701 14.1429H7.64648V7.28573Z" fill="#B358C1"/>
<path d="M7.64648 14.1429H3.85701C1.96346 14.1429 0.428439 15.6779 0.428439 17.5714C0.428439 19.465 1.96346 21 3.85701 21H4.03746C6.03067 21 7.64648 19.3842 7.64648 17.391V14.1429Z" fill="#1EBB25"/>
<rect x="7.64648" y="7.28573" width="7.21805" height="6.85714" rx="3.42857" fill="#61AEF5"/>
</svg>
